<svg width="80" height="80" viewBox="0 0 80 80" fill="none" xmlns="http://www.w3.org/2000/svg">
<path d="M40.0003 6.66669C39.2737 6.66669 38.5603 6.67335 37.8603 6.68335L35.807 6.74002L34.8103 6.78335L32.8803 6.89669L31.037 7.05002C15.087 8.59669 8.59699 15.0867 7.05033 31.0367L6.89699 32.88L6.78366 34.81C6.76699 35.1367 6.75033 35.47 6.74033 35.8067L6.68366 37.86L6.67033 38.92L6.66699 40C6.66699 40.7267 6.67366 41.44 6.68366 42.14L6.74033 44.1934L6.78366 45.19L6.89699 47.12L7.05033 48.9634C8.59699 64.9134 15.087 71.4034 31.037 72.95L32.8803 73.1034L34.8103 73.2167C35.137 73.2334 35.4703 73.25 35.807 73.26L37.8603 73.3167L40.0003 73.3334L42.1403 73.3167L44.1937 73.26L45.1903 73.2167L47.1203 73.1034L48.9637 72.95C64.9137 71.4034 71.4037 64.9134 72.9503 48.9634L73.1037 47.12L73.217 45.19C73.2337 44.8634 73.2503 44.53 73.2603 44.1934L73.317 42.14L73.3337 40L73.317 37.86L73.2603 35.8067L73.217 34.81L73.1037 32.88L72.9503 31.0367C71.4037 15.0867 64.9137 8.59669 48.9637 7.05002L47.1203 6.89669L45.1903 6.78335C44.8582 6.76714 44.526 6.75269 44.1937 6.74002L42.1403 6.68335L41.0803 6.67002L40.0003 6.66669ZM40.0003 20C42.551 19.9999 45.0054 20.9744 46.8612 22.7243C48.717 24.4742 49.834 26.867 49.9837 29.4134L50.0003 30V33.3334C51.6822 33.3328 53.3022 33.968 54.5355 35.1117C55.7688 36.2553 56.5242 37.8228 56.6503 39.5L56.667 40V50C56.6675 51.6819 56.0323 53.3019 54.8887 54.5352C53.745 55.7685 52.1775 56.5239 50.5003 56.65L50.0003 56.6667H30.0003C28.3184 56.6672 26.6984 56.032 25.4652 54.8884C24.2319 53.7447 23.4765 52.1772 23.3503 50.5L23.3337 50V40C23.3331 38.3181 23.9683 36.6981 25.112 35.4649C26.2556 34.2316 27.8231 33.4762 29.5003 33.35L30.0003 33.3334V30C30.0003 27.3479 31.0539 24.8043 32.9293 22.929C34.8046 21.0536 37.3482 20 40.0003 20ZM50.0003 40H30.0003V50H50.0003V40ZM40.0003 26.6667C39.1839 26.6668 38.3959 26.9665 37.7858 27.5091C37.1756 28.0516 36.7859 28.7992 36.6903 29.61L36.667 30V33.3334H43.3337V30C43.3337 29.116 42.9825 28.2681 42.3573 27.643C41.7322 27.0179 40.8844 26.6667 40.0003 26.6667Z" fill="#C0BAB2"/>
</svg>
